<?xml version="1.0" encoding="iso-8859-1"?>
<!-- Generator: Adobe Illustrator 22.1.0, SVG Export Plug-In . SVG Version: 6.00 Build 0)  -->
<svg version="1.1" id="Layer_1" xmlns="http://www.w3.org/2000/svg" xmlns:xlink="http://www.w3.org/1999/xlink" x="0px" y="0px"
	 viewBox="0 0 100 100" style="enable-background:new 0 0 100 100;" xml:space="preserve">
<g>
	<rect x="12" y="58" style="fill:#FEFDEF;" width="24" height="27"/>
	<rect x="12" y="58" style="fill:#CECCBE;" width="24" height="3"/>
	<path style="fill:#78A2D2;" d="M28,64.5v10c0,0.28-0.22,0.5-0.5,0.5h-7c-0.28,0-0.5-0.22-0.5-0.5v-10c0-0.28,0.22-0.5,0.5-0.5h7
		C27.78,64,28,64.22,28,64.5z"/>
	<polygon style="fill:#F15B6C;" points="36,51 13,51 9,58 36,58 	"/>
	<path style="fill:#1F212B;" d="M36,86H12c-0.553,0-1-0.448-1-1V58c0-0.552,0.447-1,1-1s1,0.448,1,1v26h22V58c0-0.552,0.447-1,1-1
		s1,0.448,1,1v27C37,85.552,36.553,86,36,86z"/>
	<path style="fill:#1F212B;" d="M36,59H9c-0.356,0-0.686-0.19-0.865-0.498c-0.179-0.308-0.18-0.688-0.003-0.998l4-7
		C12.31,50.192,12.642,50,13,50h23c0.553,0,1,0.448,1,1v7C37,58.552,36.553,59,36,59z M10.724,57H35v-5H13.58L10.724,57z"/>
	<path style="fill:#1F212B;" d="M27.5,75h-7c-0.276,0-0.5-0.224-0.5-0.5v-10c0-0.276,0.224-0.5,0.5-0.5h7c0.276,0,0.5,0.224,0.5,0.5
		v10C28,74.776,27.776,75,27.5,75z M21,74h6v-9h-6V74z"/>
	<path style="fill:#1F212B;" d="M29.5,81H12c-0.276,0-0.5-0.224-0.5-0.5S11.724,80,12,80h17.5c0.276,0,0.5,0.224,0.5,0.5
		S29.776,81,29.5,81z"/>
	<path style="fill:#1F212B;" d="M36,81h-3.5c-0.276,0-0.5-0.224-0.5-0.5s0.224-0.5,0.5-0.5H36c0.276,0,0.5,0.224,0.5,0.5
		S36.276,81,36,81z"/>
</g>
<g>
	<rect x="64" y="58" style="fill:#FEFDEF;" width="24" height="27"/>
	<rect x="64" y="58" style="fill:#CECCBE;" width="24" height="3"/>
	<path style="fill:#78A2D2;" d="M80,64.5v10c0,0.28-0.22,0.5-0.5,0.5h-7c-0.28,0-0.5-0.22-0.5-0.5v-10c0-0.28,0.22-0.5,0.5-0.5h7
		C79.78,64,80,64.22,80,64.5z"/>
	<polygon style="fill:#F15B6C;" points="64,51 87,51 91,58 64,58 	"/>
	<path style="fill:#1F212B;" d="M88,86H64c-0.553,0-1-0.448-1-1V58c0-0.552,0.447-1,1-1s1,0.448,1,1v26h22V58c0-0.552,0.447-1,1-1
		s1,0.448,1,1v27C89,85.552,88.553,86,88,86z"/>
	<path style="fill:#1F212B;" d="M91,59H64c-0.553,0-1-0.448-1-1v-7c0-0.552,0.447-1,1-1h23c0.358,0,0.69,0.192,0.868,0.504l4,7
		c0.177,0.31,0.176,0.69-0.003,0.998C91.686,58.81,91.356,59,91,59z M65,57h24.276l-2.856-5H65V57z"/>
	<path style="fill:#1F212B;" d="M79.5,75h-7c-0.276,0-0.5-0.224-0.5-0.5v-10c0-0.276,0.224-0.5,0.5-0.5h7c0.276,0,0.5,0.224,0.5,0.5
		v10C80,74.776,79.776,75,79.5,75z M73,74h6v-9h-6V74z"/>
	<path style="fill:#1F212B;" d="M67.5,81H64c-0.276,0-0.5-0.224-0.5-0.5S63.724,80,64,80h3.5c0.276,0,0.5,0.224,0.5,0.5
		S67.776,81,67.5,81z"/>
	<path style="fill:#1F212B;" d="M87.5,81h-16c-0.276,0-0.5-0.224-0.5-0.5s0.224-0.5,0.5-0.5h16c0.276,0,0.5,0.224,0.5,0.5
		S87.776,81,87.5,81z"/>
</g>
<g>
	<g>
		<polygon style="fill:#FEFDEF;" points="64,39 64,85 36,85 36,39 50,26 		"/>
		<g>
			<polygon style="fill:#CECCBE;" points="64,33.76 64,43.76 50,30.5 36,43.76 36,33.76 50,20.5 			"/>
			<g>
				<polygon style="fill:#F15B6C;" points="69,44 50,26 31,44 31,34 50,16 69,34 				"/>
				<path style="fill:#1F212B;" d="M69,45c-0.251,0-0.498-0.095-0.688-0.274L50,27.377L31.688,44.726
					c-0.291,0.274-0.715,0.35-1.083,0.192C30.238,44.761,30,44.399,30,44V34c0-0.274,0.113-0.537,0.313-0.726l19-18
					c0.385-0.365,0.99-0.365,1.375,0l19,18C69.887,33.463,70,33.726,70,34v10c0,0.399-0.238,0.761-0.604,0.918
					C69.268,44.973,69.134,45,69,45z M50,25c0.247,0,0.495,0.091,0.688,0.274L68,41.675V34.43L50,17.377L32,34.43v7.245
					l17.313-16.401C49.505,25.091,49.753,25,50,25z"/>
				<g>
					<path style="fill:#1F212B;" d="M50,17c-0.553,0-1-0.448-1-1V6c0-0.552,0.447-1,1-1s1,0.448,1,1v10C51,16.552,50.553,17,50,17z"
						/>
					<path style="fill:#1F212B;" d="M54,11h-8c-0.553,0-1-0.448-1-1s0.447-1,1-1h8c0.553,0,1,0.448,1,1S54.553,11,54,11z"/>
				</g>
			</g>
		</g>
	</g>
	<g>
		<path style="fill:#B3B2C3;" d="M43,85V66c0-3.86,3.141-7,7-7s7,3.14,7,7v19H43z"/>
		<path style="fill:#1F212B;" d="M43.5,85c-0.276,0-0.5-0.224-0.5-0.5V66c0-3.86,3.141-7,7-7s7,3.14,7,7v15.5
			c0,0.276-0.224,0.5-0.5,0.5S56,81.776,56,81.5V66c0-3.309-2.691-6-6-6s-6,2.691-6,6v18.5C44,84.776,43.776,85,43.5,85z"/>
		<path style="fill:#1F212B;" d="M54.5,75h-1c-0.276,0-0.5-0.224-0.5-0.5s0.224-0.5,0.5-0.5h1c0.276,0,0.5,0.224,0.5,0.5
			S54.776,75,54.5,75z"/>
	</g>
	<path style="fill:#1F212B;" d="M64,86H36c-0.553,0-1-0.448-1-1V40c0-0.552,0.447-1,1-1s1,0.448,1,1v44h26V39.785
		c0-0.552,0.447-1,1-1s1,0.448,1,1V85C65,85.552,64.553,86,64,86z"/>
	<g>
		<path style="fill:#78A2D2;" d="M50,52.5c3.038,0,5.5-2.462,5.5-5.5s-2.462-5.5-5.5-5.5s-5.5,2.462-5.5,5.5
			c0,1.33,0.472,2.549,1.257,3.5l-0.384,0.317c0.52,0.63,1.169,1.147,1.903,1.523L47.5,51.9C48.25,52.284,49.1,52.5,50,52.5z"/>
		<path style="fill:#1F212B;" d="M50,53c-0.96,0-1.878-0.22-2.728-0.654c-0.246-0.126-0.344-0.427-0.218-0.673
			c0.126-0.246,0.427-0.342,0.673-0.218C48.435,51.817,49.199,52,50,52c2.757,0,5-2.243,5-5s-2.243-5-5-5s-5,2.243-5,5
			c0,1.159,0.405,2.289,1.143,3.182c0.176,0.213,0.146,0.528-0.067,0.704c-0.212,0.174-0.529,0.145-0.704-0.067
			C44.487,49.747,44,48.391,44,47c0-3.309,2.691-6,6-6s6,2.691,6,6S53.309,53,50,53z"/>
	</g>
</g>
</svg>
