<?xml version="1.0" standalone="no"?>
<!DOCTYPE svg PUBLIC "-//W3C//DTD SVG 20010904//EN"
 "http://www.w3.org/TR/2001/REC-SVG-20010904/DTD/svg10.dtd">
<svg version="1.0" xmlns="http://www.w3.org/2000/svg"
 width="468.000000pt" height="468.000000pt" viewBox="0 0 468.000000 468.000000"
 preserveAspectRatio="xMidYMid meet">

<g transform="translate(0.000000,468.000000) scale(0.100000,-0.100000)"
fill="#000000" stroke="none">
<path d="M2297 3846 c-21 -8 -55 -25 -75 -39 -20 -14 -316 -120 -657 -237
-341 -117 -626 -217 -632 -222 -21 -17 -15 -70 13 -110 15 -21 73 -78 130
-128 l103 -90 111 0 110 0 0 -210 0 -210 -173 0 -173 0 -254 -75 c-140 -42
-261 -81 -268 -89 -7 -7 -15 -28 -18 -47 -6 -35 -4 -39 107 -246 l34 -63 147
0 c145 0 148 0 152 -22 3 -13 4 -106 3 -208 l-2 -185 -100 -6 c-75 -4 -192
-27 -469 -92 -209 -48 -373 -91 -377 -99 -28 -43 -1 -85 140 -217 66 -62 130
-128 142 -147 l21 -34 199 0 199 0 0 -245 0 -245 175 0 175 0 0 245 0 245 580
0 580 0 0 -245 0 -245 175 0 175 0 0 245 0 245 565 0 565 0 0 -245 0 -245 175
0 175 0 0 245 0 245 188 0 187 0 20 35 c10 20 59 80 108 133 49 53 98 116 110
138 23 49 17 90 -16 104 -12 5 -176 48 -364 95 -253 63 -359 85 -407 85 l-65
0 -3 210 -3 210 137 0 137 0 17 32 c9 18 40 67 69 108 86 123 102 171 72 211
-8 11 -117 46 -284 93 l-272 76 -161 0 -160 0 2 208 3 207 94 3 94 3 98 85
c136 118 182 192 147 236 -7 8 -292 111 -633 229 -343 118 -634 223 -651 236
-66 49 -147 64 -217 39z m713 -1036 l0 -210 -630 0 -630 0 0 210 0 210 630 0
630 0 0 -210z m450 -940 l0 -210 -1082 2 -1083 3 -3 208 -2 207 1085 0 1085 0
0 -210z"/>
</g>
</svg>
