<?xml version="1.0" standalone="no"?>
<!DOCTYPE svg PUBLIC "-//W3C//DTD SVG 20010904//EN"
 "http://www.w3.org/TR/2001/REC-SVG-20010904/DTD/svg10.dtd">
<svg version="1.0" xmlns="http://www.w3.org/2000/svg"
 width="64.000000pt" height="64.000000pt" viewBox="0 0 64.000000 64.000000"
 preserveAspectRatio="xMidYMid meet">

<g transform="translate(0.000000,64.000000) scale(0.100000,-0.100000)"
fill="#000000" stroke="none">
<path d="M320 511 c0 -11 -17 -36 -37 -55 -31 -28 -36 -37 -25 -47 19 -20 15
-43 -12 -68 -20 -19 -23 -27 -14 -41 9 -15 5 -23 -25 -50 -41 -35 -48 -60 -17
-60 11 0 20 -7 20 -15 0 -21 -56 -20 -64 2 -10 25 -23 4 -30 -49 l-6 -48 224
0 224 0 -5 47 c-6 53 -19 76 -29 50 -4 -11 -18 -17 -40 -17 -40 0 -45 16 -9
30 34 13 32 24 -10 57 -29 23 -34 33 -30 54 4 18 0 31 -15 44 -23 21 -26 45
-7 64 10 10 5 19 -25 46 -20 19 -38 41 -40 51 -5 25 -28 30 -28 5z m45 -71 c4
-6 -10 -10 -35 -10 -25 0 -39 4 -35 10 3 6 19 10 35 10 16 0 32 -4 35 -10z m5
-56 c0 -11 -9 -14 -37 -12 -52 4 -56 28 -4 28 30 0 41 -4 41 -16z m20 -49 c11
-13 3 -15 -61 -15 -67 1 -72 2 -55 15 26 20 100 19 116 0z m10 -55 c0 -6 -28
-10 -65 -10 -37 0 -65 4 -65 10 0 6 28 10 65 10 37 0 65 -4 65 -10z m48 -57
c3 -10 -25 -13 -118 -13 -109 0 -121 2 -110 15 11 13 33 15 118 13 73 -2 107
-7 110 -15z m-23 -44 c4 -5 0 -18 -9 -28 -9 -10 -16 -23 -16 -29 0 -22 -29
-12 -32 11 -2 17 -10 22 -33 22 -22 0 -33 -6 -40 -22 -11 -26 -25 -30 -25 -9
0 7 -7 19 -15 26 -8 7 -15 19 -15 26 0 11 20 14 89 14 53 0 93 -4 96 -11z
m-185 -59 c0 -5 -20 -10 -45 -10 -25 0 -45 5 -45 10 0 6 20 10 45 10 25 0 45
-4 45 -10z m110 0 c0 -5 -7 -10 -15 -10 -8 0 -15 5 -15 10 0 6 7 10 15 10 8 0
15 -4 15 -10z m170 0 c0 -5 -20 -10 -45 -10 -25 0 -45 5 -45 10 0 6 20 10 45
10 25 0 45 -4 45 -10z"/>
</g>
</svg>
